<svg width="16" height="16" viewBox="0 0 16 16" fill="none" xmlns="http://www.w3.org/2000/svg">
<path fill-rule="evenodd" clip-rule="evenodd" d="M9.41425 8.00025L15.7072 1.70725C16.0982 1.31625 16.0982 0.68425 15.7072 0.29325C15.3162 -0.09775 14.6842 -0.09775 14.2933 0.29325L8.00025 6.58625L1.70725 0.29325C1.31625 -0.09775 0.68425 -0.09775 0.29325 0.29325C-0.09775 0.68425 -0.09775 1.31625 0.29325 1.70725L6.58625 8.00025L0.29325 14.2933C-0.09775 14.6842 -0.09775 15.3162 0.29325 15.7072C0.48825 15.9022 0.74425 16.0002 1.00025 16.0002C1.25625 16.0002 1.51225 15.9022 1.70725 15.7072L8.00025 9.41425L14.2933 15.7072C14.4882 15.9022 14.7443 16.0002 15.0002 16.0002C15.2562 16.0002 15.5122 15.9022 15.7072 15.7072C16.0982 15.3162 16.0982 14.6842 15.7072 14.2933L9.41425 8.00025Z" fill="#676B6D"/>
</svg>
