<svg width="24" height="24" viewBox="0 0 24 24" fill="none" xmlns="http://www.w3.org/2000/svg">
<path fill-rule="evenodd" clip-rule="evenodd" d="M20 0H4C1.794 0 0 1.794 0 4V20C0 22.206 1.794 24 4 24H20C22.206 24 24 22.206 24 20V4C24 1.794 22.206 0 20 0ZM20 2C21.1 2 22 2.9 22 4V20C22 21.1 21.1 22 20 22H4C2.9 22 2 21.1 2 20V4C2 2.9 2.9 2 4 2H20Z" fill="#949A9D"/>
<path fill-rule="evenodd" clip-rule="evenodd" d="M7 7H17C17.55 7 18 6.55 18 6C18 5.45 17.55 5 17 5H7C6.45 5 6 5.45 6 6C6 6.55 6.45 7 7 7Z" fill="#949A9D"/>
<path fill-rule="evenodd" clip-rule="evenodd" d="M17 9H7C6.45 9 6 9.45 6 10C6 10.55 6.45 11 7 11H17C17.55 11 18 10.55 18 10C18 9.45 17.55 9 17 9Z" fill="#949A9D"/>
<path fill-rule="evenodd" clip-rule="evenodd" d="M17 13H7C6.45 13 6 13.45 6 14C6 14.55 6.45 15 7 15H17C17.55 15 18 14.55 18 14C18 13.45 17.55 13 17 13Z" fill="#949A9D"/>
<path fill-rule="evenodd" clip-rule="evenodd" d="M13 17H7C6.45 17 6 17.45 6 18C6 18.55 6.45 19 7 19H13C13.55 19 14 18.55 14 18C14 17.45 13.55 17 13 17Z" fill="#949A9D"/>
</svg>
