<svg width="24" height="24" viewBox="0 0 24 24" fill="none" xmlns="http://www.w3.org/2000/svg">
<path fill-rule="evenodd" clip-rule="evenodd" d="M20 22H4C2.9 22 2 21.1 2 20V16.454L9.092 10.248L22 18.546V20C22 21.1 21.1 22 20 22ZM4 2H20C21.1 2 22 2.9 22 4V16.168L9.541 8.159C9.166 7.917 8.677 7.953 8.341 8.248L2 13.796V4C2 2.9 2.9 2 4 2ZM20 0H4C1.794 0 0 1.794 0 4V20C0 22.206 1.794 24 4 24H20C22.206 24 24 22.206 24 20V4C24 1.794 22.206 0 20 0Z" fill="#949A9D"/>
<path fill-rule="evenodd" clip-rule="evenodd" d="M17 6C17.551 6 18 6.449 18 7C18 7.551 17.551 8 17 8C16.449 8 16 7.551 16 7C16 6.449 16.449 6 17 6ZM17 10C18.654 10 20 8.654 20 7C20 5.346 18.654 4 17 4C15.346 4 14 5.346 14 7C14 8.654 15.346 10 17 10Z" fill="#949A9D"/>
</svg>
